<svg width="1920" height="1080" viewBox="0 0 1920 1080" xmlns="http://www.w3.org/2000/svg"><rect width="1920" height="1080" fill="#ffffff"/><path d="M1920,1080C1641.3333333333333,1095.5,281.8333333333333,1099.6666666666667,0,1080C-281.8333333333333,1060.3333333333333,150.16666666666669,972,229,962C307.8333333333333,952,392.6666666666667,1005.6666666666666,473,1020C553.3333333333334,1034.3333333333333,630.5,1048.3333333333333,711,1048C791.5,1047.6666666666667,875.6666666666666,1036.3333333333333,956,1018C1036.3333333333333,999.6666666666666,1112.8333333333333,947.3333333333334,1193,938C1273.1666666666667,928.6666666666666,1357.1666666666667,953.8333333333334,1437,962C1516.8333333333333,970.1666666666666,1591.5,967.3333333333334,1672,987C1752.5,1006.6666666666666,2198.6666666666665,1064.5,1920,1080C1641.3333333333333,1095.5,281.8333333333333,1099.6666666666667,0,1080" fill="#ffffff"/></svg>